<?xml version="1.0" encoding="UTF-8"?>
<svg id="Layer_2" data-name="Layer 2" xmlns="http://www.w3.org/2000/svg" xmlns:xlink="http://www.w3.org/1999/xlink" viewBox="0 0 818.66 227.56">
  <defs>
    <style>
      .cls-1 {
        fill: url(#linear-gradient-2);
      }

      .cls-2 {
        fill: url(#linear-gradient);
      }

      .cls-3 {
        fill: #fbaa19;
      }

      .cls-4 {
        fill: #0079ff;
      }

      .cls-5 {
        fill: #010440;
      }
    </style>
    <linearGradient id="linear-gradient" x1="799.01" y1="-11.18" x2="750.5" y2="72.83" gradientUnits="userSpaceOnUse">
      <stop offset="0" stop-color="#0079ff"/>
      <stop offset=".25" stop-color="#0077fc"/>
      <stop offset=".4" stop-color="#0072f4"/>
      <stop offset=".52" stop-color="#0069e5"/>
      <stop offset=".63" stop-color="#005dd1"/>
      <stop offset=".73" stop-color="#004db7"/>
      <stop offset=".82" stop-color="#003996"/>
      <stop offset=".91" stop-color="#002170"/>
      <stop offset=".99" stop-color="#000745"/>
      <stop offset="1" stop-color="#010440"/>
    </linearGradient>
    <linearGradient id="linear-gradient-2" x1="799.01" y1="181.95" x2="750.5" y2="97.94" xlink:href="#linear-gradient"/>
  </defs>
  <g id="Layer_1-2" data-name="Layer 1">
    <g>
      <g>
        <polygon class="cls-4" points="747.65 99.59 733.45 113.8 733.44 113.8 705.04 142.2 705.04 142.2 705.03 142.2 676.63 170.61 648.22 170.61 676.62 142.2 676.63 142.2 676.63 142.2 705.03 113.8 705.04 113.8 705.04 113.79 719.24 99.59 733.44 85.39 733.45 85.39 747.65 99.59"/>
        <polygon class="cls-2" points="818.66 .17 761.85 56.98 761.85 56.98 761.85 56.99 747.65 71.19 733.45 56.99 733.45 56.98 790.26 .17 818.66 .17"/>
        <polygon class="cls-4" points="747.65 71.19 733.45 85.39 733.44 85.39 705.04 56.99 705.04 56.98 705.03 56.98 648.22 .17 676.63 .17 733.44 56.98 733.44 56.99 733.45 56.99 747.65 71.19"/>
        <polygon class="cls-1" points="818.66 170.61 790.26 170.61 761.85 142.2 761.85 142.2 761.85 142.2 733.45 113.8 747.65 99.59 761.85 113.79 761.85 113.8 761.85 113.8 790.26 142.2 790.26 142.2 790.26 142.2 818.66 170.61"/>
      </g>
      <path class="cls-5" d="M14.57,170.47H0V.06h14.57v170.41Z"/>
      <path class="cls-5" d="M56.49,51.05v19.55c11.25-13.8,22.24-19.68,36.55-19.68,10.48,0,19.68,3.32,26.07,9.2,7.41,6.64,9.97,14.31,9.97,28.63v81.79h-12.78v-76.17c0-12.27-1.28-18.91-4.86-23.51-3.83-4.86-11.24-7.92-19.94-7.92-9.97,0-18.66,3.58-25.56,10.74-7.16,7.41-9.46,13.55-9.46,24.79v72.08h-12.78V51.05h12.78Z"/>
      <path class="cls-5" d="M225.03,83.32c0-13.31-9.55-20.85-25.87-20.85s-25.37,7.54-25.37,19.34,6.03,16.83,27.38,22.11c15.57,3.77,23.11,7.28,28.89,13.31,5.53,5.53,9.04,13.82,9.04,21.85,0,18.84-15.57,31.4-39.44,31.4-25.12,0-38.93-11.3-41.45-34.16h12.81c1.01,14.32,11.81,22.86,29.14,22.86,15.57,0,25.87-8.04,25.87-20.1s-7.79-17.83-28.89-22.86c-13.56-3.27-20.85-6.53-26.63-11.81-6.03-5.27-9.8-13.56-9.8-21.85,0-18.84,15.82-31.65,38.68-31.65s37.68,12.06,38.69,32.4h-13.06Z"/>
      <path class="cls-5" d="M284.09,170.53h-12.78V51h12.78v119.53Z"/>
      <path class="cls-5" d="M413.03,51h12.56v123.04c0,33.42-20.61,53.52-55.03,53.52-20.86,0-37.19-6.78-47.99-20.1l9.55-9.3c5.28,5.78,7.79,8.04,11.06,10.05,6.28,4.02,17.84,7.04,28.14,7.04,13.07,0,25.63-4.77,32.92-12.31,6.03-6.53,8.79-15.58,8.79-28.9v-30.91c-6.03,9.8-9.3,13.82-14.82,18.09-7.79,5.78-18.6,9.3-28.9,9.3-29.9,0-52.77-25.63-52.77-59.55,0-18.34,6.78-36.18,18.34-46.99,8.79-8.79,20.6-13.07,35.18-13.07,18.09,0,30.4,7.03,42.97,24.62v-24.54ZM329.61,110.21c0,27.89,17.59,48.49,41.46,48.49,11.81,0,23.62-5.78,32.16-15.58,5.53-6.78,9.3-20.1,9.3-33.17,0-16.08-2.26-24.12-9.05-32.41-7.79-9.05-19.85-14.82-31.66-14.82-24.88,0-42.21,19.6-42.21,47.49Z"/>
      <path class="cls-5" d="M467.52,71.11c10.99-13.8,22.49-20.19,37.06-20.19,10.22,0,21.22,4.09,27.09,10.48,5.88,6.13,8.43,15.08,8.43,29.39v79.75h-12.78v-80.77c0-17.38-8.43-26.84-24.28-26.84-10.48,0-20.19,4.6-27.1,12.78-6.39,7.67-8.43,14.31-8.43,26.58v68.24h-12.78V.03h12.78v71.07Z"/>
      <path class="cls-5" d="M599.92,152.13c.25,5.88,1.53,6.9,8.43,6.9h10.74v11.5h-13.8c-13.04,0-17.89-4.6-18.15-16.1V63.01h-17.89v-12.01h17.89V.06h12.78v50.94h19.17v12.01h-19.17v89.12Z"/>
      <path class="cls-3" d="M287.41,9.97c0,5.11-4.35,9.46-9.46,9.46-5.37,0-9.71-4.35-9.71-9.71s4.35-9.71,9.71-9.71,9.46,4.35,9.46,9.97Z"/>
    </g>
  </g>
</svg>